<?xml version="1.0" standalone="no"?>
<svg xmlns="http://www.w3.org/2000/svg" version="1.1" xmlns:xlink="http://www.w3.org/1999/xlink" width="512" height="512" x="0" y="0" viewBox="0 0 512 512" style="enable-background:new 0 0 512 512" xml:space="preserve" class=""><g><path fill="#54e360" d="M496.998 256.007c0 133.102-107.9 241-241.004 241-133.098 0-240.998-107.898-240.998-241 0-133.1 107.898-241 241.002-241 133.1 0 241 107.9 241 241z" opacity="1" data-original="#54e360" class=""/><path fill="#e7f0ef" d="M380.967 165.12c-12.549-12.549-32.896-12.553-45.443 0L221.916 278.729l-45.445-45.445c-12.549-12.549-32.893-12.549-45.441 0s-12.549 32.896 0 45.445l68.164 68.164c12.549 12.549 32.896 12.549 45.441-.004l136.332-136.328c12.549-12.548 12.549-32.892 0-45.441z" opacity="1" data-original="#e7f0ef" class=""/><path d="M437.02 74.98C388.668 26.629 324.381 0 256 0S123.332 26.629 74.98 74.98C26.627 123.333 0 187.62 0 256c0 68.381 26.629 132.668 74.98 181.02S187.617 512 255.996 512c68.383 0 132.67-26.629 181.023-74.98C485.371 388.668 512 324.381 512 256c0-68.379-26.629-132.666-74.98-181.02zM255.996 482C131.381 482 30 380.617 30 256S131.383 30 256 30s226 101.383 226 226-101.385 226-226.004 226z" fill="#000000" opacity="1" data-original="#000000" class=""/><path d="M358.246 140.7c-12.592 0-24.428 4.904-33.324 13.807L221.918 257.51l-34.838-34.839c-8.902-8.902-20.738-13.806-33.328-13.806-12.588 0-24.424 4.903-33.326 13.806-18.379 18.378-18.379 48.28 0 66.658l68.164 68.164c8.9 8.901 20.736 13.804 33.326 13.805 12.594 0 24.43-4.905 33.328-13.808l136.332-136.329c18.377-18.376 18.377-48.278 0-66.654-8.904-8.903-20.74-13.807-33.33-13.807zm12.117 59.247L234.027 336.279c-3.234 3.236-7.535 5.019-12.111 5.019s-8.879-1.782-12.113-5.018l-68.164-68.164c-6.682-6.681-6.682-17.552 0-24.232 3.236-3.235 7.537-5.019 12.113-5.019s8.879 1.783 12.115 5.019l45.445 45.445a14.997 14.997 0 0 0 21.212 0l113.613-113.612c3.232-3.234 7.531-5.017 12.107-5.017s8.879 1.782 12.117 5.02c6.682 6.679 6.682 17.549.002 24.227z" fill="#000000" opacity="1" data-original="#000000" class=""/></g></svg>