<?xml version="1.0" standalone="no"?>
<svg xmlns="http://www.w3.org/2000/svg" version="1.1" xmlns:xlink="http://www.w3.org/1999/xlink" width="512" height="512" x="0" y="0" viewBox="0 0 64 64" style="enable-background:new 0 0 512 512" xml:space="preserve" class=""><g><path d="M62 43h-6a1 1 0 0 0-1 1v1h-1V24a1 1 0 0 0-1-1H37v-6a1 1 0 0 0-.1-.447l-6-12a1 1 0 0 0-.579-.5l-9-3A1 1 0 0 0 21 1H2a1 1 0 0 0-1 1v10a1 1 0 0 0 .821.983L12.4 14.908l1.765 2.647a1 1 0 0 0 .438.364L19 19.8V23H5a1 1 0 0 0-1 1v24a1 1 0 0 0 1 1h33.319l-.635.794A3.122 3.122 0 0 0 37.1 51H17a4 4 0 0 0-4 4 1 1 0 0 0 .757.97l28 7a1 1 0 0 0 .8-.138L48.3 59H55v1a1 1 0 0 0 1 1h6a1 1 0 0 0 1-1V44a1 1 0 0 0-1-1ZM13.832 13.445a.994.994 0 0 0-.653-.428L3 11.165V3h17.838l8.453 2.817L35 17.236V23h-2v-4a1 1 0 0 0-.219-.625l-3.68-4.6.756-1.26A1 1 0 0 0 30 12v-2h-2v1.723l-2.857 4.762a1 1 0 0 0 .105 1.173l6.475 7.4a1.189 1.189 0 0 1 .277.82 1.121 1.121 0 0 1-1.914.793l-7.379-7.379a1 1 0 0 0-.313-.212l-6.727-2.88ZM37 36a8 8 0 1 1-8.394-7.98l.066.066a3.079 3.079 0 0 0 3.532.606A8.026 8.026 0 0 1 37 36Zm-.02-6h8.146A4.015 4.015 0 0 0 48 32.873v6.254A4.015 4.015 0 0 0 45.126 42h-8.145a9.923 9.923 0 0 0 0-12ZM21.019 42h-8.145A4.015 4.015 0 0 0 10 39.127v-6.254A4.015 4.015 0 0 0 12.874 30h8.145a9.925 9.925 0 0 0 0 12ZM28 15.605l3 3.746V21.2l-3.768-4.31Zm-7 5.055.429.184L23 22.414V23h-2ZM6 47V25h19.586l1.244 1.244A9.937 9.937 0 0 0 23.026 28H12a1 1 0 0 0-1 1 2 2 0 0 1-2 2 1 1 0 0 0-1 1v8a1 1 0 0 0 1 1 2 2 0 0 1 2 2 1 1 0 0 0 1 1h11.026a9.922 9.922 0 0 0 11.948 0H46a1 1 0 0 0 1-1 2 2 0 0 1 2-2 1 1 0 0 0 1-1v-8a1 1 0 0 0-1-1 2 2 0 0 1-2-2 1 1 0 0 0-1-1H34.986a9.961 9.961 0 0 0-1.294-.825A3.271 3.271 0 0 0 34 25.8a3.1 3.1 0 0 0-.116-.8H52v20h-8.078a4.979 4.979 0 0 0-3.9 1.876l-.1.124Zm42 10a1.006 1.006 0 0 0-.555.168l-5.632 3.755-26.669-6.668A2 2 0 0 1 17 53h20.217a3.113 3.113 0 0 0 5.111 1.086l3.379-3.379-1.414-1.414-3.379 3.379A1.121 1.121 0 0 1 39 51.879v-.135a1.12 1.12 0 0 1 .246-.7l2.334-2.918A2.983 2.983 0 0 1 43.922 47H55v10Zm13 2h-4V45h4Z" fill="#000000" opacity="1" data-original="#000000" class=""/><path d="M30 30v-1h-2v1a3 3 0 0 0-3 3v1a3 3 0 0 0 3 3v3a1 1 0 0 1-1-1v-1h-2v1a3 3 0 0 0 3 3v1h2v-1a3 3 0 0 0 3-3v-1a3 3 0 0 0-3-3v-3a1 1 0 0 1 1 1v1h2v-1a3 3 0 0 0-3-3Zm1 8v1a1 1 0 0 1-1 1v-3a1 1 0 0 1 1 1Zm-3-3a1 1 0 0 1-1-1v-1a1 1 0 0 1 1-1Z" fill="#000000" opacity="1" data-original="#000000" class=""/></g></svg>