<?xml version="1.0" standalone="no"?>
<svg xmlns="http://www.w3.org/2000/svg" version="1.1" xmlns:xlink="http://www.w3.org/1999/xlink" width="512" height="512" x="0" y="0" viewBox="0 0 512 512" style="enable-background:new 0 0 512 512" xml:space="preserve"><g><path d="M472 160h-32V80c0-8.822-7.178-16-16-16h-32V24c0-13.233-10.767-24-24-24H144c-13.233 0-24 10.767-24 24v40H88c-8.822 0-16 7.178-16 16v80H40c-22.056 0-40 17.944-40 40v176c0 22.056 17.944 40 40 40h80v72c0 13.233 10.767 24 24 24h224c13.233 0 24-10.767 24-24v-72h80c22.056 0 40-17.944 40-40V200c0-22.056-17.944-40-40-40zm-48-80v80h-32V80zM136 24c0-4.411 3.589-8 8-8h224c4.411 0 8 3.589 8 8v136H136V24zM88 80h32v80H88zm288 408c0 4.411-3.589 8-8 8H144c-4.411 0-8-3.589-8-8V352h240zm120-112c0 13.233-10.767 24-24 24h-80v-48h16a8 8 0 0 0 0-16H104a8 8 0 0 0 0 16h16v48H40c-13.233 0-24-10.767-24-24V200c0-13.233 10.767-24 24-24h432c13.233 0 24 10.767 24 24z" fill="#000000" opacity="1" data-original="#000000"/><path d="M456 192c-13.233 0-24 10.767-24 24s10.767 24 24 24 24-10.767 24-24-10.767-24-24-24zm0 32c-4.411 0-8-3.589-8-8s3.589-8 8-8 8 3.589 8 8-3.589 8-8 8zM392 192c-13.233 0-24 10.767-24 24s10.767 24 24 24 24-10.767 24-24-10.767-24-24-24zm0 32c-4.411 0-8-3.589-8-8s3.589-8 8-8 8 3.589 8 8-3.589 8-8 8zM344 376H176a8 8 0 0 0 0 16h168a8 8 0 0 0 0-16zM344 416H176a8 8 0 0 0 0 16h168a8 8 0 0 0 0-16zM344 456H176a8 8 0 0 0 0 16h168a8 8 0 0 0 0-16z" fill="#000000" opacity="1" data-original="#000000"/></g></svg>