<?xml version="1.0" standalone="no"?>
<svg xmlns="http://www.w3.org/2000/svg" version="1.1" xmlns:xlink="http://www.w3.org/1999/xlink" width="512" height="512" x="0" y="0" viewBox="0 0 682.667 682.667" style="enable-background:new 0 0 512 512" xml:space="preserve"><g><defs><clipPath id="a" clipPathUnits="userSpaceOnUse"><path d="M0 512h512V0H0Z" fill="#ffffff" opacity="1" data-original="#000000"/></clipPath></defs><g clip-path="url(#a)" transform="matrix(1.33333 0 0 -1.33333 0 682.667)"><path d="M0 0c-18.414 0-33.343 14.929-33.343 33.344 0 18.414 14.929 33.343 33.343 33.343 18.415 0 33.344-14.929 33.344-33.343C33.344 14.929 18.415 0 0 0Zm94.146 57.961c-11.825-4.853-25.708-.34-32.274 11.03-6.572 11.375-3.532 25.667 6.597 33.466-11.721 11.616-26.387 20.268-42.778 24.746-1.674-12.696-12.537-22.49-25.691-22.49-13.148 0-24.017 9.794-25.691 22.49-16.391-4.478-31.052-13.13-42.772-24.746 10.124-7.804 13.163-22.091 6.597-33.466-6.568-11.37-20.455-15.883-32.274-11.03a97.509 97.509 0 0 1-3.143-24.617 97.339 97.339 0 0 1 3.178-24.751c11.813 4.838 25.676.32 32.239-11.045 6.547-11.346 3.547-25.584-6.513-33.402 11.71-11.578 26.352-20.204 42.707-24.667C-23.937-47.899-13.1-38.175 0-38.175c13.104 0 23.938-9.724 25.672-22.346 16.361 4.463 31.003 13.089 42.713 24.667-10.06 7.818-13.066 22.056-6.513 33.402C68.434 8.913 82.292 13.431 94.11 8.593a97.339 97.339 0 0 1 3.178 24.751 97.554 97.554 0 0 1-3.142 24.617z" style="stroke-width:20;stroke-linecap:round;stroke-linejoin:round;stroke-miterlimit:10;stroke-dasharray:none;stroke-opacity:1" transform="translate(273.22 313.911)" fill="none" stroke="#ffffff" stroke-width="20" stroke-linecap="round" stroke-linejoin="round" stroke-miterlimit="10" stroke-dasharray="none" stroke-opacity="" data-original="#000000" opacity="1"/><path d="M0 0h-49.51l.001 132.69H55.647l101.958-42.201c17.835-7.382 26.238-27.885 18.711-45.659l-.345-.816c-7.586-17.918-27.828-26.509-45.818-19.57-28.933 11.16-66.878 25.748-66.878 25.748l97.701-37.561a111.043 111.043 0 0 1 64.628-4.595L325.7 30.954c18.342 4.199 36.556-7.485 40.385-25.908 3.659-17.602-7.189-34.964-24.614-39.393L222.036-64.701a111.04 111.04 0 0 0-67.896 4.245L83.449-32.729" style="stroke-width:20;stroke-linecap:round;stroke-linejoin:round;stroke-miterlimit:10;stroke-dasharray:none;stroke-opacity:1" transform="translate(135.206 83.515)" fill="none" stroke="#ffffff" stroke-width="20" stroke-linecap="round" stroke-linejoin="round" stroke-miterlimit="10" stroke-dasharray="none" stroke-opacity="" data-original="#000000" opacity="1"/><path d="M0 0h-75.696v175.777H.001Z" style="stroke-width:20;stroke-linecap:round;stroke-linejoin:round;stroke-miterlimit:10;stroke-dasharray:none;stroke-opacity:1" transform="translate(85.696 64.01)" fill="none" stroke="#ffffff" stroke-width="20" stroke-linecap="round" stroke-linejoin="round" stroke-miterlimit="10" stroke-dasharray="none" stroke-opacity="" data-original="#000000" opacity="1"/><path d="M0 0c13.698 13.512 25.016 29.892 32.938 48.735 32.185 76.55-3.78 164.697-80.33 196.88-76.549 32.185-164.697-3.78-196.881-80.329-14.192-33.755-15.125-69.762-5.179-102.233" style="stroke-width:20;stroke-linecap:round;stroke-linejoin:round;stroke-miterlimit:10;stroke-dasharray:none;stroke-opacity:1" transform="translate(377.674 239.201)" fill="none" stroke="#ffffff" stroke-width="20" stroke-linecap="round" stroke-linejoin="round" stroke-miterlimit="10" stroke-dasharray="none" stroke-opacity="" data-original="#000000" opacity="1"/><path d="m0 0 28.191-16.613 18.627 27.185" style="stroke-width:20;stroke-linecap:round;stroke-linejoin:round;stroke-miterlimit:10;stroke-dasharray:none;stroke-opacity:1" transform="translate(101.416 312.996)" fill="none" stroke="#ffffff" stroke-width="20" stroke-linecap="round" stroke-linejoin="round" stroke-miterlimit="10" stroke-dasharray="none" stroke-opacity="" data-original="#000000" opacity="1"/><path d="M0 0v0" style="stroke-width:20;stroke-linecap:round;stroke-linejoin:round;stroke-miterlimit:10;stroke-dasharray:none;stroke-opacity:1" transform="translate(342.09 216.205)" fill="none" stroke="#ffffff" stroke-width="20" stroke-linecap="round" stroke-linejoin="round" stroke-miterlimit="10" stroke-dasharray="none" stroke-opacity="" data-original="#000000" opacity="1"/><path d="M0 0v0" style="stroke-width:20;stroke-linecap:round;stroke-linejoin:round;stroke-miterlimit:10;stroke-dasharray:none;stroke-opacity:1" transform="translate(175.936 67.54)" fill="none" stroke="#ffffff" stroke-width="20" stroke-linecap="round" stroke-linejoin="round" stroke-miterlimit="10" stroke-dasharray="none" stroke-opacity="" data-original="#000000" opacity="1"/></g></g></svg>