<?xml version="1.0" standalone="no"?>
<svg xmlns="http://www.w3.org/2000/svg" version="1.1" xmlns:xlink="http://www.w3.org/1999/xlink" width="512" height="512" x="0" y="0" viewBox="0 0 48 39.924" style="enable-background:new 0 0 512 512" xml:space="preserve"><g><g data-name="Layer 2"><g data-name="Layer 1"><path d="M25.676 17.875c1.86 0 2.249 1.069 2.249 1.968a2.117 2.117 0 0 1-2.238 1.966 2.259 2.259 0 0 1-2.1-1.287.727.727 0 0 0-1.34.564 3.6 3.6 0 0 0 2.7 2.1v.833a.727.727 0 1 0 1.454 0V23.2a3.5 3.5 0 0 0 2.977-3.354c0-1.655-.973-3.423-3.7-3.423-1.464 0-2.239-.681-2.239-1.967a2.12 2.12 0 0 1 2.239-1.968 2.256 2.256 0 0 1 2.1 1.288.727.727 0 0 0 1.341-.564A3.606 3.606 0 0 0 26.4 11.1v-.829a.727.727 0 1 0-1.454 0v.829a3.5 3.5 0 0 0-2.966 3.354c.003 1.652.973 3.421 3.696 3.421zM16.238 9.719v-2.01h2.009a.727.727 0 1 0 0-1.454h-2.009v-2.01a.727.727 0 0 0-1.454 0v2.01h-2.01a.727.727 0 1 0 0 1.454h2.01v2.01a.727.727 0 1 0 1.454 0z" fill="#000000" opacity="1" data-original="#000000"/><path d="M47.109 27.705a1.88 1.88 0 0 0-1.63-.358 3.061 3.061 0 0 0-.637-1.712 2.753 2.753 0 0 0-2.246-1 12.144 12.144 0 0 0-3.757 1.068 41.158 41.158 0 0 1-5.791 1.86 2.86 2.86 0 0 0-.271-.229 12.428 12.428 0 0 0-7.1-22.647 12.261 12.261 0 0 0-3.424.5 6.978 6.978 0 1 0-8.532 8.532A12.145 12.145 0 0 0 15 23.5a70.851 70.851 0 0 0-4.893-.273 3.474 3.474 0 0 0-2.4.889 1.719 1.719 0 0 0-1.5-.89H1.723A1.726 1.726 0 0 0 0 24.951v11.621A1.726 1.726 0 0 0 1.723 38.3h4.489a1.717 1.717 0 0 0 1.48-.856 3.467 3.467 0 0 0 1.4.749 53.009 53.009 0 0 0 13.283 1.736c7.363 0 16.143-1.68 23.854-7.734A4.035 4.035 0 0 0 48 29.561a2.231 2.231 0 0 0-.891-1.856zm-7.748-.64a11.6 11.6 0 0 1 3.254-.972h.027a1.291 1.291 0 0 1 1.066.453 1.734 1.734 0 0 1 .316 1.221c-.473.179-1 .4-1.595.649a53.836 53.836 0 0 1-8.537 2.91 2.6 2.6 0 0 0 .136-.678 4.806 4.806 0 0 0-.182-1.772 43.959 43.959 0 0 0 5.515-1.811zM9.983 6.982a5.528 5.528 0 1 1 5.528 5.529 5.534 5.534 0 0 1-5.528-5.529zm4.692 10.165a10.846 10.846 0 0 1 .489-3.2c.116.006.23.018.347.018a6.991 6.991 0 0 0 6.982-6.983c0-.115-.012-.226-.017-.34a10.849 10.849 0 0 1 3.2-.5 10.985 10.985 0 0 1 5.431 20.542 3.472 3.472 0 0 0-.448-.025c-6.627.075-7.742-.584-9.035-1.352a11.1 11.1 0 0 0-4.725-1.58 10.876 10.876 0 0 1-2.224-6.58zM6.48 36.572a.271.271 0 0 1-.268.269H1.723a.272.272 0 0 1-.268-.269V24.951a.272.272 0 0 1 .268-.268h4.489a.271.271 0 0 1 .268.268zm38.886-5.555c-13.12 10.3-29.481 7.462-35.907 5.765a2.051 2.051 0 0 1-1.524-1.992l.04-8.066a2.05 2.05 0 0 1 2.044-2.041h.053c7.987.2 9.487 1.093 10.81 1.878 1.483.88 2.774 1.64 9.824 1.555a1.971 1.971 0 0 1 1.359.517 2.41 2.41 0 0 1 .511 1.918c-.014.213-.057.852-1.33 1.355-.01 0-.018.01-.027.013h-.014c-1.347.518-4.316.953-10.81.081a.727.727 0 1 0-.193 1.441 50.418 50.418 0 0 0 6.577.512 14.537 14.537 0 0 0 4.885-.654 53.589 53.589 0 0 0 11.328-3.545c1.474-.618 2.863-1.2 3.176-.944.352.3.383.526.376.67-.028.565-.781 1.262-1.178 1.537z" fill="#000000" opacity="1" data-original="#000000"/><path d="M3.968 33.442a.807.807 0 1 0 .806.807.807.807 0 0 0-.806-.807z" fill="#000000" opacity="1" data-original="#000000"/></g></g></g></svg>