<?xml version="1.0" standalone="no"?>
<svg xmlns="http://www.w3.org/2000/svg" version="1.1" xmlns:xlink="http://www.w3.org/1999/xlink" width="512" height="512" x="0" y="0" viewBox="0 0 60 60" style="enable-background:new 0 0 512 512" xml:space="preserve"><g><path d="M41.992 8.081c0-.027.008-.054.008-.081 0-5.2-10.819-8-21-8S0 2.8 0 8v36c0 3.43 5.655 7.3 18 7.914V52c0 5.2 10.819 8 21 8s21-2.8 21-8V16c0-4.689-8.809-7.428-18.008-7.919ZM58 16c0 2.838-7.8 6-19 6s-19-3.162-19-6 7.8-6 19-6 19 3.162 19 6ZM21 2c11.2 0 19 3.162 19 6v.009C39.666 8 39.332 8 39 8c-8.74 0-17.944 2.068-20.376 5.941C8.657 13.526 2 10.577 2 8c0-2.838 7.8-6 19-6ZM2 11.521c3.122 2.532 9.487 4.052 16.006 4.393 0 .029-.006.057-.006.086v9.912C8.389 25.4 2 22.505 2 20Zm0 11.988c3.127 2.534 9.5 4.062 16 4.406v10C8.39 37.4 2 34.506 2 32ZM2 44v-8.5c2.607 2.187 7.84 4.012 16 4.418v10C8.39 49.4 2 46.506 2 44Zm37 14c-11.2 0-19-3.162-19-6v-8.439C23.591 46.464 31.468 48 39 48s15.409-1.536 19-4.439V52c0 2.838-7.8 6-19 6Zm0-12c-11.2 0-19-3.162-19-6v-8.439C23.591 34.464 31.468 36 39 36s15.409-1.536 19-4.439V40c0 2.838-7.8 6-19 6Zm0-12c-11.2 0-19-3.162-19-6v-8.439C23.591 22.464 31.468 24 39 24s15.409-1.536 19-4.439V28c0 2.838-7.8 6-19 6Z" fill="#ffffff" opacity="1" data-original="#000000"/><path d="M4.577 19.107q.5.234 1.054.453a1 1 0 0 0 .738-1.86q-.5-.2-.946-.407a1 1 0 0 0-.846 1.813ZM9.776 20.822q.5.116 1.026.221a.967.967 0 0 0 .2.02 1 1 0 0 0 .2-1.98 39.421 39.421 0 0 1-.974-.21 1 1 0 1 0-.448 1.949ZM24.369 25.7q-.495-.2-.946-.407a1 1 0 0 0-.846 1.813q.5.234 1.054.453a1 1 0 0 0 .738-1.859ZM29.2 27.083a39.421 39.421 0 0 1-.974-.21 1 1 0 1 0-.448 1.949q.5.116 1.026.221a.967.967 0 0 0 .2.02 1 1 0 0 0 .2-1.98Z" fill="#ffffff" opacity="1" data-original="#000000"/></g></svg>